<?xml version="1.0" encoding="UTF-8" standalone="no"?>
<svg
   xmlns:dc="http://purl.org/dc/elements/1.1/"
   xmlns:cc="http://creativecommons.org/ns#"
   xmlns:rdf="http://www.w3.org/1999/02/22-rdf-syntax-ns#"
   xmlns:svg="http://www.w3.org/2000/svg"
   xmlns="http://www.w3.org/2000/svg"
   xmlns:sodipodi="http://sodipodi.sourceforge.net/DTD/sodipodi-0.dtd"
   xmlns:inkscape="http://www.inkscape.org/namespaces/inkscape"
   id="emoji"
   viewBox="0 0 72 72"
   version="1.1"
   sodipodi:docname="1F6B2-InkscapeSVG.svg"
   inkscape:version="0.92.4 (5da689c313, 2019-01-14)">
  <metadata
     id="metadata59">
    <rdf:RDF>
      <cc:Work
         rdf:about="">
        <dc:format>image/svg+xml</dc:format>
        <dc:type
           rdf:resource="http://purl.org/dc/dcmitype/StillImage" />
        <dc:title></dc:title>
      </cc:Work>
    </rdf:RDF>
  </metadata>
  <defs
     id="defs57" />
  <sodipodi:namedview
     pagecolor="#ffffff"
     bordercolor="#666666"
     borderopacity="1"
     objecttolerance="10"
     gridtolerance="10"
     guidetolerance="10"
     inkscape:pageopacity="0"
     inkscape:pageshadow="2"
     inkscape:window-width="669"
     inkscape:window-height="480"
     id="namedview55"
     showgrid="false"
     inkscape:zoom="3.2777778"
     inkscape:cx="-9.1525424"
     inkscape:cy="36"
     inkscape:window-x="689"
     inkscape:window-y="174"
     inkscape:window-maximized="0"
     inkscape:current-layer="emoji" />
  <g
     id="grid">
    <path
       d="M68,4V68H4V4Zm4-4H0V72H72Z"
       fill="#b3b3b3"
       id="path2" />
    <path
       d="M12.9,11H59.1A1.8987,1.8987,0,0,1,61,12.9h0V59a1.8987,1.8987,0,0,1-1.9,1.9H12.9A1.8371,1.8371,0,0,1,11,59h0V12.9A1.8987,1.8987,0,0,1,12.9,11Z"
       fill="none"
       stroke="#00a5ff"
       stroke-miterlimit="10"
       stroke-width="0.1"
       id="path4" />
    <path
       d="M18.3,4H53.8A2.2425,2.2425,0,0,1,56,6.3V65.8a2.3261,2.3261,0,0,1-2.3,2.3H18.3A2.4139,2.4139,0,0,1,16,65.7V6.3A2.263,2.263,0,0,1,18.3,4Z"
       fill="none"
       stroke="#00a5ff"
       stroke-miterlimit="10"
       stroke-width="0.1"
       id="path6" />
    <path
       d="M68,18.3V53.8a2.3261,2.3261,0,0,1-2.3,2.3H6.3A2.4139,2.4139,0,0,1,4,53.7V18.3A2.263,2.263,0,0,1,6.3,16H65.8A2.2425,2.2425,0,0,1,68,18.3Z"
       fill="none"
       stroke="#00a5ff"
       stroke-miterlimit="10"
       stroke-width="0.1"
       id="path8" />
    <circle
       cx="36"
       cy="36"
       r="29"
       fill="none"
       stroke="#00a5ff"
       stroke-miterlimit="10"
       stroke-width="0.1"
       id="circle10" />
  </g>
  <g
     id="line">
    <g
       id="g23">
      <path
         d="M31,45a.9448.9448,0,0,0-1,1,9.2,9.2,0,1,1-9.2-9.2h0l.2-2h-.2A11.2,11.2,0,1,0,32,46,.9448.9448,0,0,0,31,45Z"
         id="path13" />
      <path
         d="M52.8,34.8a12.2713,12.2713,0,0,0-3.9.7l.9,1.8a10.4735,10.4735,0,0,1,3-.5,9.2,9.2,0,1,1-9.1,9.7l-2-.1A11.1545,11.1545,0,1,0,52.8,34.8Z"
         id="path15" />
      <path
         d="M48,38.2l-.9-1.8a11.0932,11.0932,0,0,0-5.3,7.9l2,.1A9.3751,9.3751,0,0,1,48,38.2Z"
         id="path17" />
      <line
         x1="23"
         y1="22"
         x2="27"
         y2="22"
         fill="none"
         stroke="#000"
         stroke-linecap="round"
         stroke-linejoin="round"
         stroke-width="2"
         id="line19" />
      <line
         x1="42"
         y1="25.7"
         x2="48"
         y2="25.7"
         fill="none"
         stroke="#000"
         stroke-linecap="round"
         stroke-linejoin="round"
         stroke-width="2"
         id="line21" />
    </g>
    <g
       id="g37">
      <line
         x1="21.1"
         y1="46"
         x2="22.8"
         y2="24.6"
         fill="none"
         stroke="#000"
         stroke-linecap="round"
         stroke-linejoin="round"
         stroke-width="2"
         id="line25" />
      <line
         x1="36"
         y1="45"
         x2="23"
         y2="30"
         fill="none"
         stroke="#000"
         stroke-linecap="round"
         stroke-linejoin="round"
         stroke-width="2"
         id="line27" />
      <line
         x1="45"
         y1="30"
         x2="53"
         y2="46"
         fill="none"
         stroke="#000"
         stroke-linecap="round"
         stroke-linejoin="round"
         stroke-width="2"
         id="line29" />
      <line
         x1="23"
         y1="30"
         x2="44"
         y2="30"
         fill="none"
         stroke="#000"
         stroke-linecap="round"
         stroke-linejoin="round"
         stroke-width="2"
         id="line31" />
      <line
         x1="46"
         y1="28.4"
         x2="36"
         y2="45"
         fill="none"
         stroke="#000"
         stroke-linecap="round"
         stroke-linejoin="round"
         stroke-width="2"
         id="line33" />
      <line
         x1="36"
         y1="45"
         x2="53"
         y2="46"
         fill="none"
         stroke="#000"
         stroke-linecap="round"
         stroke-linejoin="round"
         stroke-width="2"
         id="line35" />
    </g>
  </g>
  <g
     id="color" />
  <g
     id="color-foreground">
    <line
       x1="21.1"
       y1="46"
       x2="22.8"
       y2="24.6"
       fill="none"
       stroke="#ea5a47"
       stroke-linecap="round"
       stroke-linejoin="round"
       stroke-width="2.1"
       id="line41" />
    <line
       x1="36"
       y1="45"
       x2="23"
       y2="30"
       fill="none"
       stroke="#ea5a47"
       stroke-linecap="round"
       stroke-linejoin="round"
       stroke-width="2.1"
       id="line43" />
    <line
       x1="45"
       y1="30"
       x2="53"
       y2="46"
       fill="none"
       stroke="#ea5a47"
       stroke-linecap="round"
       stroke-linejoin="round"
       stroke-width="2.1"
       id="line45" />
    <line
       x1="23"
       y1="30"
       x2="44"
       y2="30"
       fill="none"
       stroke="#ea5a47"
       stroke-linecap="round"
       stroke-linejoin="round"
       stroke-width="2.1"
       id="line47" />
    <line
       x1="46"
       y1="28.4"
       x2="36"
       y2="45"
       fill="none"
       stroke="#ea5a47"
       stroke-linecap="round"
       stroke-linejoin="round"
       stroke-width="2.1"
       id="line49" />
    <line
       x1="36"
       y1="45"
       x2="53"
       y2="46"
       fill="none"
       stroke="#ea5a47"
       stroke-linecap="round"
       stroke-linejoin="round"
       stroke-width="2.1"
       id="line51" />
  </g>
</svg>
