<?xml version="1.0" encoding="UTF-8" standalone="no"?>
<svg
   xmlns:dc="http://purl.org/dc/elements/1.1/"
   xmlns:cc="http://creativecommons.org/ns#"
   xmlns:rdf="http://www.w3.org/1999/02/22-rdf-syntax-ns#"
   xmlns:svg="http://www.w3.org/2000/svg"
   xmlns="http://www.w3.org/2000/svg"
   version="1.1"
   viewBox="0 0 72 72"
   id="emoji">
  <metadata
     id="metadata59">
    <rdf:RDF>
      <cc:Work
         rdf:about="">
        <dc:format>image/svg+xml</dc:format>
        <dc:type
           rdf:resource="http://purl.org/dc/dcmitype/StillImage" />
        <dc:title></dc:title>
      </cc:Work>
    </rdf:RDF>
  </metadata>
  <defs
     id="defs57" />
  <g
     id="grid">
    <path
       id="path2"
       fill="#b3b3b3"
       d="M68,4V68H4V4Zm4-4H0V72H72Z" />
    <path
       id="path4"
       stroke-width="0.1"
       stroke-miterlimit="10"
       stroke="#00a5ff"
       fill="none"
       d="M12.9,11H59.1A1.8987,1.8987,0,0,1,61,12.9h0V59a1.8987,1.8987,0,0,1-1.9,1.9H12.9A1.8371,1.8371,0,0,1,11,59h0V12.9A1.8987,1.8987,0,0,1,12.9,11Z" />
    <path
       id="path6"
       stroke-width="0.1"
       stroke-miterlimit="10"
       stroke="#00a5ff"
       fill="none"
       d="M18.3,4H53.8A2.2425,2.2425,0,0,1,56,6.3V65.8a2.3261,2.3261,0,0,1-2.3,2.3H18.3A2.4139,2.4139,0,0,1,16,65.7V6.3A2.263,2.263,0,0,1,18.3,4Z" />
    <path
       id="path8"
       stroke-width="0.1"
       stroke-miterlimit="10"
       stroke="#00a5ff"
       fill="none"
       d="M68,18.3V53.8a2.3261,2.3261,0,0,1-2.3,2.3H6.3A2.4139,2.4139,0,0,1,4,53.7V18.3A2.263,2.263,0,0,1,6.3,16H65.8A2.2425,2.2425,0,0,1,68,18.3Z" />
    <circle
       id="circle10"
       stroke-width="0.1"
       stroke-miterlimit="10"
       stroke="#00a5ff"
       fill="none"
       r="29"
       cy="36"
       cx="36" />
  </g>
  <g
     id="line">
    <g
       id="g23">
      <path
         id="path13"
         d="M31,45a.9448.9448,0,0,0-1,1,9.2,9.2,0,1,1-9.2-9.2h0l.2-2h-.2A11.2,11.2,0,1,0,32,46,.9448.9448,0,0,0,31,45Z" />
      <path
         id="path15"
         d="M52.8,34.8a12.2713,12.2713,0,0,0-3.9.7l.9,1.8a10.4735,10.4735,0,0,1,3-.5,9.2,9.2,0,1,1-9.1,9.7l-2-.1A11.1545,11.1545,0,1,0,52.8,34.8Z" />
      <path
         id="path17"
         d="M48,38.2l-.9-1.8a11.0932,11.0932,0,0,0-5.3,7.9l2,.1A9.3751,9.3751,0,0,1,48,38.2Z" />
      <line
         id="line19"
         stroke-width="2"
         stroke-linejoin="round"
         stroke-linecap="round"
         stroke="#000"
         fill="none"
         y2="22"
         x2="27"
         y1="22"
         x1="23" />
      <line
         id="line21"
         stroke-width="2"
         stroke-linejoin="round"
         stroke-linecap="round"
         stroke="#000"
         fill="none"
         y2="25.7"
         x2="48"
         y1="25.7"
         x1="42" />
    </g>
    <g
       id="g37">
      <line
         id="line25"
         stroke-width="2"
         stroke-linejoin="round"
         stroke-linecap="round"
         stroke="#000"
         fill="none"
         y2="24.6"
         x2="22.8"
         y1="46"
         x1="21.1" />
      <line
         id="line27"
         stroke-width="2"
         stroke-linejoin="round"
         stroke-linecap="round"
         stroke="#000"
         fill="none"
         y2="30"
         x2="23"
         y1="45"
         x1="36" />
      <line
         id="line29"
         stroke-width="2"
         stroke-linejoin="round"
         stroke-linecap="round"
         stroke="#000"
         fill="none"
         y2="46"
         x2="53"
         y1="30"
         x1="45" />
      <line
         id="line31"
         stroke-width="2"
         stroke-linejoin="round"
         stroke-linecap="round"
         stroke="#000"
         fill="none"
         y2="30"
         x2="44"
         y1="30"
         x1="23" />
      <line
         id="line33"
         stroke-width="2"
         stroke-linejoin="round"
         stroke-linecap="round"
         stroke="#000"
         fill="none"
         y2="45"
         x2="36"
         y1="28.4"
         x1="46" />
      <line
         id="line35"
         stroke-width="2"
         stroke-linejoin="round"
         stroke-linecap="round"
         stroke="#000"
         fill="none"
         y2="46"
         x2="53"
         y1="45"
         x1="36" />
    </g>
  </g>
  <g
     id="color" />
  <g
     id="color-foreground">
    <line
       id="line41"
       stroke-width="2.1"
       stroke-linejoin="round"
       stroke-linecap="round"
       stroke="#ea5a47"
       fill="none"
       y2="24.6"
       x2="22.8"
       y1="46"
       x1="21.1" />
    <line
       id="line43"
       stroke-width="2.1"
       stroke-linejoin="round"
       stroke-linecap="round"
       stroke="#ea5a47"
       fill="none"
       y2="30"
       x2="23"
       y1="45"
       x1="36" />
    <line
       id="line45"
       stroke-width="2.1"
       stroke-linejoin="round"
       stroke-linecap="round"
       stroke="#ea5a47"
       fill="none"
       y2="46"
       x2="53"
       y1="30"
       x1="45" />
    <line
       id="line47"
       stroke-width="2.1"
       stroke-linejoin="round"
       stroke-linecap="round"
       stroke="#ea5a47"
       fill="none"
       y2="30"
       x2="44"
       y1="30"
       x1="23" />
    <line
       id="line49"
       stroke-width="2.1"
       stroke-linejoin="round"
       stroke-linecap="round"
       stroke="#ea5a47"
       fill="none"
       y2="45"
       x2="36"
       y1="28.4"
       x1="46" />
    <line
       id="line51"
       stroke-width="2.1"
       stroke-linejoin="round"
       stroke-linecap="round"
       stroke="#ea5a47"
       fill="none"
       y2="46"
       x2="53"
       y1="45"
       x1="36" />
  </g>
</svg>
