<svg id="emoji" version="1.1" viewBox="0 0 72 72" xmlns="http://www.w3.org/2000/svg">
  <g id="grid">
    <path d="M68,4V68H4V4Zm4-4H0V72H72Z" fill="#b3b3b3"/>
    <path d="m12.9 11h46.2a1.899 1.899 0 0 1 1.9 1.9v46.1a1.899 1.899 0 0 1-1.9 1.9h-46.2a1.837 1.837 0 0 1-1.9-1.9v-46.1a1.899 1.899 0 0 1 1.9-1.9z" fill="none" stroke="#00a5ff" stroke-miterlimit="10" stroke-width="0.1"/>
    <path d="m18.3 4h35.5a2.242 2.242 0 0 1 2.2 2.3v59.5a2.326 2.326 0 0 1-2.3 2.3h-35.4a2.414 2.414 0 0 1-2.3-2.4v-59.4a2.263 2.263 0 0 1 2.3-2.3z" fill="none" stroke="#00a5ff" stroke-miterlimit="10" stroke-width="0.1"/>
    <path d="m68 18.3v35.5a2.326 2.326 0 0 1-2.3 2.3h-59.4a2.414 2.414 0 0 1-2.3-2.4v-35.4a2.263 2.263 0 0 1 2.3-2.3h59.5a2.242 2.242 0 0 1 2.2 2.3z" fill="none" stroke="#00a5ff" stroke-miterlimit="10" stroke-width="0.1"/>
    <circle cx="36" cy="36" r="29" fill="none" stroke="#00a5ff" stroke-miterlimit="10" stroke-width="0.1"/>
  </g>
  <g id="line">
    <g>
      <path d="M31,45a.9448.9448,0,0,0-1,1,9.2,9.2,0,1,1-9.2-9.2h0l.2-2h-.2A11.2,11.2,0,1,0,32,46,.9448.9448,0,0,0,31,45Z"/>
      <path d="m52.8 34.8a12.27 12.27 0 0 0-3.9 0.7l0.9 1.8a10.47 10.47 0 0 1 3-0.5 9.2 9.2 0 1 1-9.1 9.7l-2-0.1a11.15 11.15 0 1 0 11.1-11.6z"/>
      <path d="m48 38.2-0.9-1.8a11.09 11.09 0 0 0-5.3 7.9l2 0.1a9.375 9.375 0 0 1 4.2-6.2z"/>
      <line x1="23" x2="27" y1="22" y2="22" fill="none" stroke="#000" stroke-linecap="round" stroke-linejoin="round" stroke-width="2"/>
      <line x1="42" x2="48" y1="25.7" y2="25.7" fill="none" stroke="#000" stroke-linecap="round" stroke-linejoin="round" stroke-width="2"/>
    </g>
    <g fill="none" stroke="#000" stroke-linecap="round" stroke-linejoin="round" stroke-width="2">
      <line x1="21.1" x2="22.8" y1="46" y2="24.6"/>
      <line x1="36" x2="23" y1="45" y2="30"/>
      <line x1="45" x2="53" y1="30" y2="46"/>
      <line x1="23" x2="44" y1="30" y2="30"/>
      <line x1="46" x2="36" y1="28.4" y2="45"/>
      <line x1="36" x2="53" y1="45" y2="46"/>
    </g>
  </g>
  <g id="color-foreground" fill="none" stroke="#ea5a47" stroke-linecap="round" stroke-linejoin="round" stroke-width="2.1">
    <line x1="21.1" x2="22.8" y1="46" y2="24.6"/>
    <line x1="36" x2="23" y1="45" y2="30"/>
    <line x1="45" x2="53" y1="30" y2="46"/>
    <line x1="23" x2="44" y1="30" y2="30"/>
    <line x1="46" x2="36" y1="28.4" y2="45"/>
    <line x1="36" x2="53" y1="45" y2="46"/>
  </g>
</svg>
