<svg id="emoji" version="1.1" viewBox="0 0 72 72" xmlns="http://www.w3.org/2000/svg">
  <g id="grid">
    <path d="M68,4V68H4V4H68m4-4H0V72H72Z" fill="#b3b3b3"/>
    <rect x="11" y="10.96" width="50" height="50" rx="1.923" fill="none" stroke="#00a5ff" stroke-miterlimit="10" stroke-width="0.1"/>
    <rect x="16" y="4" width="40" height="64" rx="2.254" fill="none" stroke="#00a5ff" stroke-miterlimit="10" stroke-width="0.1"/>
    <rect x="4" y="16" width="64" height="40" rx="2.254" fill="none" stroke="#00a5ff" stroke-miterlimit="10" stroke-width="0.1"/>
    <circle cx="36" cy="36" r="29" fill="none" stroke="#00a5ff" stroke-miterlimit="10" stroke-width="0.1"/>
  </g>
  <g id="line-supplement">
    <path d="m23.26 22.01c-0.1714-0.0586-0.3579-0.02-0.4927 0.0996l-3.051 2.707c-0.1343 0.1191-0.1943 0.3013-0.1572 0.4771s0.1655 0.3184 0.3364 0.373l3.81 1.221c0.0503 0.0161 0.1016 0.0239 0.1528 0.0239 0.1206 0 0.2388-0.0435 0.332-0.126 0.1318-0.1172 0.1924-0.2954 0.1587-0.4688l-0.7583-3.928c-0.0336-0.1762-0.1596-0.3207-0.33-0.3788z"/>
    <path d="m27.82 15.54-3.949 0.6841c-0.168 0.0293-0.3101 0.1421-0.376 0.2998s-0.0469 0.3379 0.0508 0.478l2.709 3.899c0.0942 0.1362 0.2485 0.2148 0.4106 0.2148 0.0283 0 0.0566-0.0024 0.0854-0.0073 0.1914-0.0332 0.3467-0.1743 0.397-0.3623l1.24-4.583c0.0449-0.1646 2e-3 -0.3408-0.1128-0.4673-0.1147-0.1259-0.2865-0.1831-0.455-0.1557z"/>
    <path d="m36.22 11.73c-0.127-0.1484-0.3281-0.21-0.5161-0.1562-0.188 0.0527-0.3276 0.2104-0.3584 0.4033l-0.5713 3.629c-0.0225 0.144 0.019 0.291 0.1138 0.4023 0.0947 0.1108 0.2334 0.1748 0.3794 0.1753l3.674 0.0063h1e-3c0.1953 0 0.3721-0.1133 0.4541-0.29 0.082-0.1772 0.0527-0.3862-0.0742-0.5347l-3.103-3.635z"/>
    <path d="m49.58 18.08c-0.0137-0.1792-0.1221-0.3369-0.2852-0.4136l-4.079-1.923c-0.1611-0.0776-0.3545-0.0596-0.5 0.043-0.1475 0.1035-0.2275 0.2773-0.2109 0.4565l0.417 4.403c0.0166 0.1758 0.125 0.3296 0.2852 0.4048 0.0674 0.0322 0.1406 0.0479 0.2129 0.0479 0.0986 0 0.1963-0.0288 0.2803-0.0859l3.662-2.48c0.1484-0.1005 0.2324-0.2734 0.2177-0.4526z"/>
    <path d="m53.43 24.96-2.68-2.886c-0.123-0.1318-0.3057-0.1875-0.4805-0.1465s-0.3145 0.1729-0.3652 0.3452l-1.139 3.851c-0.0508 0.1724-0.0059 0.3584 0.1191 0.4883 0.0957 0.0991 0.2256 0.1533 0.3604 0.1533 0.041 0 0.082-0.0049 0.1221-0.0151l3.818-0.9653c0.1719-0.0435 0.3076-0.1738 0.3574-0.3433s0.0069-0.3526-0.1133-0.482z"/>
    <path d="m38.64 22.96-7.679 0.9912c-0.1782 0.0234-0.3306 0.1401-0.3984 0.3062-0.0684 0.1665-0.042 0.3564 0.0684 0.498l4.676 5.983c0.0957 0.1221 0.2412 0.1919 0.394 0.1919 0.021 0 0.0425-0.0015 0.064-0.0039 0.1753-0.0229 0.3257-0.1362 0.3955-0.2983l3.002-6.975c0.0713-0.165 0.0488-0.3555-0.0596-0.499-0.1084-0.1431-0.2871-0.2134-0.4639-0.1949z"/>
  </g>
  <g id="color">
    <path d="m17.35 21.31c-2.49 3.653-3.946 10.06-3.946 14.81 0 12.57 10.23 22.8 22.8 22.8 12.57 0 22.8-10.23 22.8-22.8 0-4.702-1.551-10.48-4-14.12" fill="#FCEA2B"/>
    <path d="m28 50c0.2704-0.3562 3.31-8.218 8.421-8.004 4.605 0.1927 7.229 7.541 7.579 8.004h-16z" fill="#fff"/>
    <path d="m17 22c-1.333-2.333-3.667-6.667-5-9 4.316 0.1645 3.999-0.4774 7.63 0.0104 0.6666-2 2.704-5.01 3.37-7.01 2.667 2 5.333 4 8 6 2-3.333 4-1.667 6-5 2.333 3.333 4.617 2.667 6.95 6 2-2 4.05 0 6.05-2 0.3333 1.667 0.6667 3.333 1 5 3.333-1.667 6.667-3.333 10-5-1.667 3-4.333 8-6 11" fill="#E27022"/>
    <polygon points="23.85 26.41 20.04 25.19 23.1 22.48" fill="#E27022" stroke="#E27022" stroke-linecap="round" stroke-linejoin="round" stroke-miterlimit="10"/>
    <polygon points="26.67 20.62 23.96 16.72 27.91 16.04" fill="#FCEA2B" stroke="#FCEA2B" stroke-linecap="round" stroke-linejoin="round" stroke-miterlimit="10"/>
    <polygon points="35.26 15.68 35.84 12.06 38.94 15.69" fill="#FCEA2B" stroke="#FCEA2B" stroke-linecap="round" stroke-linejoin="round" stroke-miterlimit="10"/>
    <polygon points="45.42 20.6 45 16.19 49.08 18.12" fill="#FCEA2B" stroke="#FCEA2B" stroke-linecap="round" stroke-linejoin="round" stroke-miterlimit="10"/>
    <polygon points="53.07 25.3 49.25 26.27 50.39 22.41" fill="#E27022" stroke="#E27022" stroke-linecap="round" stroke-linejoin="round" stroke-miterlimit="10"/>
    <polygon points="35.7 30.43 31.02 24.45 38.7 23.46" fill="#E27022" stroke="#E27022" stroke-linecap="round" stroke-linejoin="round" stroke-miterlimit="10"/>
  </g>
  <g id="line">
    <path d="m21.73 17.96" fill="none" stroke="#000" stroke-miterlimit="10" stroke-width="2"/>
    <path d="m16 24.64" fill="none" stroke="#000" stroke-miterlimit="10" stroke-width="2"/>
    <path d="m55.97 24.59c1.926 3.363 3.026 7.259 3.026 11.41 0 12.7-10.3 23-23 23s-23-10.3-23-23c0-4.134 1.09-8.012 2.999-11.36" fill="none" stroke="#000" stroke-linecap="round" stroke-linejoin="round" stroke-miterlimit="10" stroke-width="2"/>
    <path d="m30.32 30.93c0 1.657-1.345 3-3 3-1.655 0-3-1.343-3-3 0-1.655 1.345-3 3-3 1.655 0 3 1.345 3 3"/>
    <path d="m48.32 30.93c0 1.657-1.345 3-3 3s-3-1.343-3-3c0-1.655 1.345-3 3-3s3 1.345 3 3"/>
    <path d="m28 50c0.2704-0.3562 1-8 8.421-8.004 6.579-0.0033 7.229 7.541 7.579 8.004h-16z" fill="none" stroke="#000" stroke-linecap="round" stroke-linejoin="round" stroke-miterlimit="10" stroke-width="2"/>
    <path d="m16 20c-1.333-2.333-4-7-4-7l7.63 0.0104 2.841-6.99 7.846 5.61 6.683-4.631 6.95 6 6.05-2s0.6667 3.333 1 5c3.333-1.667 6.667-3.333 10-5-1.667 3-3.333 6-5 9" fill="none" stroke="#000" stroke-linecap="round" stroke-linejoin="round" stroke-miterlimit="10" stroke-width="2"/>
  </g>
</svg>
